<?xml version="1.0" encoding="UTF-8"?>
<!DOCTYPE svg PUBLIC "-//W3C//DTD SVG 1.0//EN" "http://www.w3.org/TR/2001/REC-SVG-20010904/DTD/svg10.dtd">
<!-- Creator: CorelDRAW X7 -->
<svg xmlns="http://www.w3.org/2000/svg" xml:space="preserve" width="7.27858cm" height="7.27858cm" version="1.0" style="shape-rendering:geometricPrecision; text-rendering:geometricPrecision; image-rendering:optimizeQuality; fill-rule:evenodd; clip-rule:evenodd"
viewBox="0 0 80446 80446"
 xmlns:xlink="http://www.w3.org/1999/xlink">
 <defs>
  <style type="text/css">
   <![CDATA[
    .fil0 {fill:#00BCD3}
    .fil3 {fill:#F57F16}
    .fil2 {fill:#FEA001}
    .fil1 {fill:#FECA29}
   ]]>
  </style>
 </defs>
 <g id="Capa_x0020_1">
  <metadata id="CorelCorpID_0Corel-Layer"/>
  <path class="fil0" d="M19772 56868c45,-1411 5652,-35728 6309,-39742 268,-1634 683,-8218 2753,-4015l2906 5899c635,1289 3307,7096 3927,7742 1273,-1713 2335,-6452 3646,-6818 1173,-328 1627,898 1985,1624 1083,2201 3922,7613 4665,9413 939,-447 5958,-5913 7058,-6865 2146,-1856 2374,1600 2642,3181l3087 17960c667,3883 1576,8116 2047,11984 -692,301 -1709,972 -2442,1438l-12476 7478c-5719,3425 -5599,3424 -11080,242 -2640,-1533 -13044,-7859 -15136,-8895l109 -626zm21873 23578l-2931 0c-2862,-100 -5710,-494 -8455,-1192 -1325,-336 -2572,-730 -3726,-1144 -1115,-401 -2441,-931 -3437,-1434 -2187,-1104 -4237,-2178 -6151,-3590 -6675,-4924 -11885,-11358 -14649,-19290 -1998,-5733 -2296,-8996 -2296,-15144 0,-2925 624,-6208 1223,-8518 1176,-4534 3415,-9499 6137,-13189 4986,-6758 11194,-11740 19173,-14608 5576,-2004 9112,-2337 15104,-2337 9843,0 20210,4891 27064,11745 4051,4051 7538,9420 9449,14905 1963,5633 2296,8921 2296,14987 0,5555 -1929,11981 -3768,15715 -3286,6671 -7245,11444 -13267,15801 -1887,1365 -3973,2525 -6164,3577 -4726,2269 -10134,3525 -15602,3716z"/>
  <path class="fil1" d="M45963 30971c-219,641 -2030,2217 -2610,2797 -744,745 -2020,2278 -2862,2706 -416,784 -4156,4293 -5082,5219l-15478 15474c-197,-143 -177,216 -159,-299l-109 626c2092,1036 12496,7362 15136,8895 5481,3182 5361,3183 11080,-242l12476 -7478c733,-466 1750,-1137 2442,-1438 -471,-3868 -1380,-8101 -2047,-11984l-3087 -17960c-268,-1581 -496,-5037 -2642,-3181 -1100,952 -6119,6418 -7058,6865z"/>
  <path class="fil2" d="M19772 56868c419,-412 763,-1251 1031,-1812l14864 -28151c31,32 75,38 88,101l4736 9468c842,-428 2118,-1961 2862,-2706 580,-580 2391,-2156 2610,-2797 -743,-1800 -3582,-7212 -4665,-9413 -358,-726 -812,-1952 -1985,-1624 -1311,366 -2373,5105 -3646,6818 -620,-646 -3292,-6453 -3927,-7742l-2906 -5899c-2070,-4203 -2485,2381 -2753,4015 -657,4014 -6264,38331 -6309,39742z"/>
  <path class="fil3" d="M19772 56868c-18,515 -38,156 159,299l15478 -15474c926,-926 4666,-4435 5082,-5219l-4736 -9468c-13,-63 -57,-69 -88,-101l-14864 28151c-268,561 -612,1400 -1031,1812z"/>
 </g>
</svg>
