<?xml version="1.0" encoding="UTF-8"?>
<!DOCTYPE svg PUBLIC "-//W3C//DTD SVG 1.0//EN" "http://www.w3.org/TR/2001/REC-SVG-20010904/DTD/svg10.dtd">
<!-- Creator: CorelDRAW X7 -->
<svg xmlns="http://www.w3.org/2000/svg" xml:space="preserve" width="9.0511cm" height="9.0511cm" version="1.0" style="shape-rendering:geometricPrecision; text-rendering:geometricPrecision; image-rendering:optimizeQuality; fill-rule:evenodd; clip-rule:evenodd"
viewBox="0 0 73277 73277"
 xmlns:xlink="http://www.w3.org/1999/xlink">
 <defs>
  <style type="text/css">
   <![CDATA[
    .str0 {stroke:black;stroke-width:161.917}
    .fil4 {fill:#0E2C2D}
    .fil3 {fill:#17474C}
    .fil2 {fill:#29636D}
    .fil0 {fill:#2C3E50}
    .fil13 {fill:#333333}
    .fil8 {fill:#482A15}
    .fil11 {fill:#6FC5BC}
    .fil12 {fill:#8DD3D5}
    .fil5 {fill:#DBB626}
    .fil6 {fill:#DFB500}
    .fil1 {fill:#E9C29C}
    .fil7 {fill:#EDC92C}
    .fil9 {fill:#EED050}
    .fil10 {fill:white}
   ]]>
  </style>
 </defs>
 <g id="Capa_x0020_1">
  <metadata id="CorelCorpID_0Corel-Layer"/>
  <circle class="fil0 str0" cx="36638" cy="36638" r="36557"/>
  <path class="fil1" d="M37217 28948c-1196,830 -2627,1942 -4795,901 -1161,-558 -2661,-2973 10,-3113 -32,72 -111,145 -139,190 -27,44 -101,137 -131,191 -28,53 -88,135 -114,192 -535,1223 676,1751 1794,676 1956,-1880 370,-892 4552,-1169 2482,-164 2462,2995 3972,1384 708,-755 157,-516 108,-699l-472 -765c2784,177 1062,2709 -185,3199 -2168,851 -3405,-157 -4600,-987zm3838 -5922c-163,794 -327,645 462,478 265,208 490,419 320,1238 -317,1529 -1771,1163 -2708,705 -757,-2938 1651,-3159 1926,-2421zm-5820 2386c-915,462 -2377,810 -2715,-780 -328,-1543 716,-2019 2127,-1778 858,915 976,1121 588,2558zm-40 -5042c-2271,1267 -5679,2177 -8782,2331 57,5983 4708,10812 10804,10812 5978,0 10970,-4923 10767,-10865 -1144,-977 -1913,-1388 -2929,-2734l-9860 456z"/>
  <path class="fil2" d="M24054 59540l-212 -1491 6966 -4 2982 -22992c-3584,0 -4667,356 -6124,2740 -2093,3425 -2683,10061 -3170,14262 -157,1349 -272,2509 -415,3848 -159,1494 -874,2751 -27,3637z"/>
  <path class="fil2" d="M43930 58045l6632 0 -181 1495c816,-944 113,-2397 -21,-3929l-1234 -11644c-972,-7356 -2209,-9053 -8145,-8891l2949 22969z"/>
  <path class="fil3" d="M38293 38195l43 850 362 1613 -76 672c406,724 442,2191 522,3115l133 1141 167 1411 57 1161 370 1605 -75 653c418,840 291,1318 383,2434l232 1803 206 1340c222,2194 216,1908 -1191,2978 -1222,929 -1054,1426 -2779,1814l707 3478c1287,-20 2575,-17 3862,-10 561,3 1511,65 2015,31 1661,-112 739,152 1383,-473 278,-1708 -248,-4057 -684,-5766l-2949 -22969c-1225,-35 -2769,-170 -3779,224l1194 288c463,882 661,1626 -103,2607z"/>
  <path class="fil4" d="M30808 58045l-991 5740c606,741 260,472 1668,504 616,14 1377,-32 2019,-34 1283,-4 2567,-5 3850,8l-707 -3478c-235,-697 -404,-550 -888,-1174 -332,-149 -103,35 -558,-278 -351,-242 -234,-207 -461,-467l-599 -714c-761,-596 -520,-478 -367,-1695l294 -2252 187 -1551 267 -2177 426 -2301 127 -1628 114 -1282 277 -2268 252 -1602 294 -3004c-647,-1246 -630,-1068 -296,-2592l981 -442c-475,-349 71,-108 -665,-271 -256,-57 -527,-65 -795,-73 -396,-12 -1009,39 -1447,39l-2982 22992z"/>
  <path class="fil5" d="M26904 19122c2368,1037 5490,1086 8291,1248l9860 -456 2475 -792c950,-637 1126,-500 1165,-1883l-2383 -488 -239 -3058 105 3121 -6363 259 -2699 206 -2398 -105 -6052 -322 -196 -3172c-554,787 -345,2195 -345,3166l-2399 313c53,1463 228,1326 1178,1963z"/>
  <path class="fil6" d="M39815 17073l6363 -259 -105 -3121c-95,-4476 -3309,-6861 -7726,-7312 599,1755 1011,2629 1231,4897 174,1793 -4,3912 237,5795z"/>
  <path class="fil7" d="M28470 13680l196 3172 6052 322c0,-4982 -80,-6543 1396,-10795 -2296,237 -4240,949 -5494,2087 -935,847 -2356,3272 -2150,5214z"/>
  <path class="fil1" d="M24054 59540c837,3399 4151,5466 5763,4245l991 -5740 -6966 4 212 1491z"/>
  <path class="fil1" d="M44614 63811c179,128 421,819 2256,46 1872,-788 2964,-2098 3511,-4317l181 -1495 -6632 0c436,1709 962,4058 684,5766z"/>
  <path class="fil8" d="M37217 28948c1195,830 2432,1838 4600,987 1247,-490 2969,-3022 185,-3199l472 765c49,183 600,-56 -108,699 -1510,1611 -1490,-1548 -3972,-1384 -4182,277 -2596,-711 -4552,1169 -1118,1075 -2329,547 -1794,-676 26,-57 86,-139 114,-192 30,-54 104,-147 131,-191 28,-45 107,-118 139,-190 -2671,140 -1171,2555 -10,3113 2168,1041 3599,-71 4795,-901z"/>
  <path class="fil7" d="M37116 17279l2699 -206c-241,-1883 -63,-4002 -237,-5795 -220,-2268 -632,-3142 -1231,-4897l-1524 -209c779,160 328,-601 431,1131l-138 9976z"/>
  <path class="fil9" d="M36114 6379c-1476,4252 -1396,5813 -1396,10795l2398 105 138 -9976c-103,-1732 348,-971 -431,-1131l-709 207z"/>
  <path class="fil8" d="M26413 22701c3103,-154 6511,-1064 8782,-2331 -2801,-162 -5923,-211 -8291,-1248l-491 3579z"/>
  <path class="fil10" d="M34068 54205l-294 2252c1073,-498 2010,-1561 3044,-2378 1001,-790 1979,-1453 3021,-2463l-43 -1200 75 -653c-1183,650 -2121,1508 -3094,2283 -879,701 -1793,1694 -2709,2159z"/>
  <path class="fil10" d="M34141 58152l599 714c2051,-1016 3664,-2864 5671,-4213l-232 -1803 -3256 2470c-1538,1354 -3026,2012 -2782,2832z"/>
  <path class="fil10" d="M34522 50477l-267 2177c930,-465 1924,-1352 2806,-2053 480,-381 767,-673 1243,-1045 744,-584 642,-509 1197,-1398l-57 -1161c-980,39 -1552,860 -2418,1567 -863,706 -1571,1326 -2504,1913z"/>
  <path class="fil10" d="M35759 59611c484,624 653,477 888,1174 1725,-388 1557,-885 2779,-1814 1407,-1070 1413,-784 1191,-2978 -954,232 -3948,2854 -4858,3618z"/>
  <path class="fil11" d="M36012 38392c1105,315 1477,531 2281,-197 764,-981 566,-1725 103,-2607l-1194 -288 -505 58 -981 442c-334,1524 -351,1346 296,2592z"/>
  <path class="fil12" d="M33774 56457c-153,1217 -394,1099 367,1695 -244,-820 1244,-1478 2782,-2832l3256 -2470c-92,-1116 35,-1594 -383,-2434l43 1200c-1042,1010 -2020,1673 -3021,2463 -1034,817 -1971,1880 -3044,2378z"/>
  <path class="fil10" d="M35075 46548l-127 1628c167,1182 36,311 394,676 451,-806 961,-1001 1727,-1664 636,-551 1317,-1172 2208,-1602l-133 -1141 -499 -546c-958,860 -2370,2058 -3570,2649z"/>
  <path class="fil12" d="M34255 52654l-187 1551c916,-465 1830,-1458 2709,-2159 973,-775 1911,-1633 3094,-2283l-370 -1605c-555,889 -453,814 -1197,1398 -476,372 -763,664 -1243,1045 -882,701 -1876,1588 -2806,2053z"/>
  <path class="fil12" d="M34740 58866c227,260 110,225 461,467 455,313 226,129 558,278 910,-764 3904,-3386 4858,-3618l-206 -1340c-2007,1349 -3620,3197 -5671,4213z"/>
  <path class="fil10" d="M35466 42998l-277 2268c1152,-610 2394,-1793 3461,-2787l-28 -1149 76 -672c-1216,783 -2187,1817 -3232,2340z"/>
  <path class="fil13" d="M34647 24290c-1071,-272 -672,183 -832,-1061l1010 -64c162,557 232,509 -178,1125zm588 1122c388,-1437 270,-1643 -588,-2558 -1411,-241 -2455,235 -2127,1778 338,1590 1800,1242 2715,780z"/>
  <path class="fil12" d="M34948 48176l-426 2301c933,-587 1641,-1207 2504,-1913 866,-707 1438,-1528 2418,-1567l-167 -1411c-891,430 -1572,1051 -2208,1602 -766,663 -1276,858 -1727,1664 -358,-365 -227,506 -394,-676z"/>
  <path class="fil13" d="M41517 23504c-337,1080 -178,712 -1194,769 -3,-1119 -340,-954 732,-1247 -275,-738 -2683,-517 -1926,2421 937,458 2391,824 2708,-705 170,-819 -55,-1030 -320,-1238z"/>
  <path class="fil12" d="M35189 45266l-114 1282c1200,-591 2612,-1789 3570,-2649l499 546c-80,-924 -116,-2391 -522,-3115l28 1149c-1067,994 -2309,2177 -3461,2787z"/>
  <path class="fil8" d="M45055 19914c1016,1346 1785,1757 2929,2734l-454 -3526 -2475 792z"/>
  <path class="fil10" d="M36012 38392l-294 3004c1159,-552 1966,-1068 2618,-2351l-43 -850c-804,728 -1176,512 -2281,197z"/>
  <path class="fil12" d="M35718 41396l-252 1602c1045,-523 2016,-1557 3232,-2340l-362 -1613c-652,1283 -1459,1799 -2618,2351z"/>
  <path class="fil10" d="M41517 23504c-789,167 -625,316 -462,-478 -1072,293 -735,128 -732,1247 1016,-57 857,311 1194,-769z"/>
  <path class="fil10" d="M33815 23229c160,1244 -239,789 832,1061 410,-616 340,-568 178,-1125l-1010 64z"/>
 </g>
</svg>
